<svg width="220" height="80px" viewBox="0 0 673 141" fill="none" xmlns="http://www.w3.org/2000/svg">
<path fill-rule="evenodd" clip-rule="evenodd" d="M78.2264 1.14642C71.9704 0.227527 70.4045 2.97501 69.1756 4.09795C67.9468 5.2209 66.9444 10.3272 66.6352 13.9901L66.1561 18.7274L64.7935 19.7104C63.6437 20.5396 62.8212 20.8135 59.5296 21.4616C51.5407 23.0349 44.3842 27.8863 41.052 33.9874C38.2842 39.0549 34.9232 53.726 38.9323 65.9189C42.9415 78.1119 43.4053 62.516 39.3639 63.4235C34.4598 68.6777 70.1775 105.197 64.9377 108.134C58.3673 111.817 48.5541 122.841 40.6294 119.942C29.0964 108.341 -0.35727 79.6064 3.61359 108.445C4.64192 115.913 16.5284 126.917 20.7276 130.077C24.5836 133.074 29.9991 135.95 34.8366 137.7C58.5118 146.264 88.8107 136.448 93.7569 117.943C94.0738 116.758 94.5917 114.778 94.9077 113.544C95.3594 111.778 95.6521 111.184 96.2759 110.76C96.7124 110.464 97.3746 109.954 97.7476 109.626C98.2437 109.19 98.5894 109.096 99.0382 109.276C99.793 109.578 99.7921 109.586 99.1701 108.217C98.5592 106.873 97.7216 106.642 96.2282 107.404C94.6892 108.189 95.0891 107.453 97.0092 105.967C99.6532 103.92 98.9087 102.118 96.1314 103.841C94.5007 104.853 94.4268 104.507 95.9394 102.945C97.4798 101.354 97.5103 100.517 96.0451 100.07C95.0903 99.7782 94.8689 99.4655 95.4888 99.285C95.6725 99.2316 95.7712 99.0357 95.7082 98.8497C95.6452 98.6637 96.0943 98.2023 96.7067 97.8243C98.2306 96.8831 98.2325 105.578 97.0092 105.967C96.863 106.013 97.9374 94.2723 97.6321 93.7473C97.3272 93.2224 96.6202 92.3143 96.0614 91.7295C95.5028 91.1447 95.159 90.5652 95.2971 90.4414C95.6006 90.1698 93.2187 88.5232 92.7288 88.6658C92.5391 88.7211 92.446 88.6273 92.5219 88.4571C92.5977 88.2872 92.4722 88.1479 92.2424 88.1479C92.013 88.1477 91.8824 88.0161 91.9521 87.8555C92.025 87.6878 91.7678 87.5248 91.3483 87.4731C90.8452 87.411 90.7244 87.3123 90.9612 87.156C91.1936 87.0025 91.0981 86.8861 90.6666 86.7964C90.2525 86.7106 90.0948 86.7781 90.2179 86.9888C90.3377 87.1932 90.2284 87.1644 89.9226 86.9112C89.656 86.6901 89.5229 86.39 89.6268 86.2445C89.8498 85.9325 87.6242 84.5368 85.1124 83.4136C83.9142 82.8781 83.4046 82.52 83.5509 82.3166C83.8326 81.9252 79.6018 80.1634 76.9106 79.551C74.9114 79.0961 72.2818 77.9986 69.0508 76.2701C68.0302 75.724 65.6454 74.7229 63.7517 74.0452C63.7517 74.0452 61.2255 73.7112 60.3078 72.813C59.7561 72.2729 59.4614 71.2116 59.4614 71.2116C58.9743 70.2899 49.3035 57.6809 57.3986 68.6809C65.4937 79.681 59.9486 68.3766 59.3711 66.1747C59.0954 65.1237 59.0389 56.7714 59.1894 54.8851C59.34 52.9988 59.7027 51.1002 59.8244 49.7976C60.0784 47.0903 62.9419 44.9783 65.9979 45.2439C67.8648 45.4064 71.2737 46.8923 71.1822 47.5041C71.0603 48.3193 75.2138 56.4505 76.9423 58.7804C83.781 67.9992 92.536 69.0027 97.1848 61.8748C100.693 55.7806 101.691 49.5753 101.793 42.5951C101.844 39.1682 101.771 37.9753 101.259 33.7997C101.087 32.3949 100.089 27.2817 99.5603 25.0986C95.976 10.29 84.4825 2.06532 78.2264 1.14642ZM83.4067 11.458C83.1205 11.7145 82.233 11.5845 82.2767 11.2925C82.3162 11.0287 83.0585 10.9114 83.394 11.1162C83.5232 11.1951 83.5289 11.3488 83.4067 11.458ZM84.5071 12.4147C84.5363 13.1442 85.4539 13.2849 85.6947 12.5968C85.9232 11.9445 87.1818 12.1482 88.4551 13.0433C88.9176 13.3682 89.3799 13.5892 89.4823 13.5341C89.585 13.4792 90.0395 13.784 90.4926 14.2118C90.9457 14.6394 91.6661 15.3057 92.0933 15.692C92.5208 16.0784 92.8385 16.6075 92.7996 16.8679C92.7607 17.128 93.0322 17.6332 93.403 17.9902C94.0587 18.6219 95.3543 20.9469 95.0231 20.8974C94.9319 20.8837 95.0329 21.1511 95.2476 21.4912C95.7629 22.3088 97.2443 27.3695 97.0053 27.4976C96.9029 27.5525 96.9657 27.8811 97.1453 28.2277C97.3246 28.5745 97.4672 29.0816 97.4621 29.3548C97.4566 29.6278 97.5858 30.7116 97.7485 31.7631C98.3322 35.5317 96.5576 45.5291 95.3374 45.3466C95.0061 45.2971 94.8279 45.7383 94.621 47.1217C94.4466 48.2871 94.4738 48.9253 94.6948 48.861C94.8869 48.8051 95.0267 48.8756 95.0055 49.0173C94.9843 49.1591 94.6559 49.2287 94.2752 49.1718C93.7447 49.0924 93.6065 49.1876 93.6819 49.5813C93.7359 49.8635 93.6557 50.0131 93.5043 49.9135C93.3525 49.8141 93.1938 49.9635 93.1517 50.2453C93.1095 50.5273 92.6665 50.977 92.1672 51.2447C90.9833 51.8794 90.99 52.0716 92.2083 52.4438C92.7634 52.6135 93.1269 52.8006 93.0162 52.8599C92.6094 53.0782 90.0465 52.5754 89.8422 52.2373C89.7271 52.0468 89.3872 51.923 89.0874 51.9623C88.7293 52.0091 88.5617 51.9016 88.5993 51.65C88.6336 51.4208 88.4642 51.2914 88.1794 51.3287C87.5934 51.4054 84.1526 50.2105 83.5622 49.7253C83.2302 49.4525 83.1785 49.45 83.333 49.7139C83.443 49.9014 83.377 50.0318 83.1869 50.0033C82.9967 49.9749 82.8557 49.8527 82.8737 49.7319C82.8918 49.6111 82.4617 49.3227 81.9178 49.0909C80.6727 48.5606 80.7105 48.5627 80.6428 49.015C80.6116 49.2237 80.4397 49.2989 80.2612 49.1818C80.0823 49.0646 80.038 48.8272 80.1623 48.6543C80.2871 48.4812 80.3319 48.3313 80.2623 48.3209C80.1931 48.3105 79.912 48.2 79.6377 48.0753C79.092 47.8269 79.1124 48.0921 79.7614 49.6805C80.3149 51.0354 79.6122 51.2358 77.6425 50.2844C77.2211 50.0806 77.1031 50.0901 77.2399 50.3165C77.3729 50.5369 77.0908 50.5856 76.3364 50.4727C75.1736 50.2988 72.7344 48.2925 72.8386 47.5955C72.8663 47.4106 72.7653 47.2038 72.6142 47.1354C72.463 47.0672 72.2897 46.6118 72.2291 46.1234C72.085 44.9609 72.5409 45.3834 73.6893 47.4777C74.4396 48.8462 75.4895 49.3772 74.8041 48.0416C74.5662 47.5777 74.6558 47.5573 75.8256 47.8087C77.3538 48.1369 77.6326 47.6148 76.7343 46.1065C76.4411 45.6142 76.2256 45.0498 76.2552 44.852C76.2847 44.6543 76.1985 44.4758 76.064 44.4554C75.9294 44.435 75.4859 43.8809 75.0791 43.2237C74.3441 42.0371 74.2513 40.2008 74.9315 40.3025C75.1112 40.3294 75.2341 40.5124 75.2047 40.7092C75.1721 40.9269 75.3509 41.0405 75.6622 41C75.9433 40.9631 76.1576 41.0382 76.1383 41.1668C76.1184 41.2998 76.7968 41.4543 77.7115 41.5246C78.6988 41.6008 79.3908 41.7665 79.5041 41.9538C79.8375 42.5054 84.6208 42.5179 84.7031 41.9675C84.7195 41.8581 85.321 41.8565 86.0397 41.964C87.1855 42.1353 87.3569 42.0905 87.4304 41.5993C87.4765 41.2912 87.7198 40.9214 87.9708 40.7775C88.3362 40.5682 88.3492 40.4812 88.0358 40.3432C86.9748 39.8753 88.5641 39.1045 90.1124 39.3361C90.5162 39.3965 90.6958 39.2991 90.6156 39.0627C90.5347 38.8243 90.6977 38.7394 91.0796 38.8209C91.4687 38.9037 91.6932 38.7812 91.7413 38.4592C91.79 38.1341 91.6114 37.9547 91.2044 37.9195C90.6798 37.8744 90.6358 37.7284 90.8898 36.8764C91.0521 36.3317 91.0961 36.0686 90.9872 36.2921C90.5999 37.0861 89.5153 36.5927 89.6512 35.6842C89.7205 35.2207 89.5308 34.5644 89.218 34.1876L88.6617 33.5165L88.3302 35.5835L85.7951 35.225C82.4678 34.7547 81.8314 34.7215 81.3256 34.9927C81.0035 35.1654 81.2697 35.2745 82.438 35.4492L83.9736 35.6789L83.7915 36.8966C83.5978 38.1911 83.0982 38.4005 82.248 37.5438C81.9 37.1932 81.7797 37.1687 81.6039 37.4128C81.2518 37.902 79.9742 37.8526 80.049 37.3528C80.0982 37.0238 79.896 36.9221 79.1322 36.892C78.1759 36.854 78.1569 36.829 78.3552 35.8609C78.5436 34.9409 78.626 34.879 79.4885 35.008C80.0713 35.0952 80.3516 35.0368 80.2394 34.8512C80.1412 34.6886 79.4465 34.5005 78.6956 34.4335C76.7769 34.2623 74.2489 33.0393 74.5672 32.4363C74.6958 32.1931 74.5168 31.4041 74.1698 30.6829C73.3245 28.9268 73.2908 28.9514 79.0323 27.1535C80.6019 26.6619 81.7387 26.0578 81.7995 25.6827C81.8552 25.3392 81.9023 25.339 82.1158 25.6829C82.3254 26.0213 82.4146 26.0142 82.6633 25.6403C82.8269 25.3946 83.4078 24.5796 83.9543 23.8289C85.0914 22.2672 85.1805 21.9974 84.6343 21.7706C84.3261 21.6425 84.3593 21.4852 84.7884 21.0414C85.613 20.1891 85.5545 15.7698 84.7102 15.1218C84.293 14.802 83.1048 12.4557 83.1629 12.0672C83.2582 11.4303 84.4805 11.7461 84.5071 12.4147ZM98.2807 26.4115C98.1475 26.59 98.0787 26.5207 98.1054 26.2346C98.1298 25.9758 98.2284 25.8436 98.3247 25.9407C98.4211 26.0378 98.4014 26.2498 98.2807 26.4115ZM84.1118 25.2215C83.9091 25.6053 83.9373 25.7069 84.2067 25.5624C84.4181 25.4491 84.5477 25.2033 84.4956 25.0157C84.4412 24.8211 84.2767 24.9095 84.1118 25.2215ZM69.892 24.1574C69.7587 24.3359 69.6899 24.2666 69.7167 23.9805C69.741 23.7217 69.8396 23.5896 69.936 23.6867C70.0324 23.7837 70.0127 23.9957 69.892 24.1574ZM59.2864 25.4663C59.1829 25.5218 59.1184 25.4329 59.1429 25.2688C59.1675 25.1046 59.0196 25.019 58.8146 25.0788C58.6093 25.1384 58.4931 25.3392 58.5559 25.5246C58.6322 25.7492 58.4699 25.7909 58.0709 25.6493C57.5447 25.4625 57.5364 25.4018 58.0034 25.1514C58.2957 24.9947 58.5717 24.6278 58.6164 24.3362C58.6884 23.8679 58.7435 23.8973 59.0861 24.5857C59.2995 25.0146 59.3899 25.4111 59.2864 25.4663ZM67.6403 25.8126C67.507 25.9912 67.4382 25.9219 67.465 25.6358C67.4893 25.377 67.5879 25.2448 67.6843 25.3419C67.7807 25.439 67.761 25.6509 67.6403 25.8126ZM53.8279 26.0575C53.282 26.2662 53.2442 26.3375 53.6455 26.4037C53.9235 26.4498 54.3058 26.4263 54.4953 26.352C54.6848 26.2778 54.4326 26.4074 53.9345 26.6404C53.4363 26.8734 52.8822 27.0408 52.7027 27.0127C52.5232 26.9843 52.6079 26.8917 52.8908 26.8065C53.1738 26.7213 53.3125 26.5581 53.1987 26.4434C52.9502 26.1931 53.6739 25.6689 54.1666 25.7426C54.3584 25.7713 54.2062 25.9131 53.8279 26.0575ZM54.6987 27.0672C54.5675 27.1845 54.2855 27.2527 54.0718 27.2187C53.8382 27.1813 53.893 27.0916 54.2086 26.9939C54.8814 26.7853 54.9945 26.8022 54.6987 27.0672ZM49.1353 28.0782C48.7644 28.3517 48.4067 28.523 48.3408 28.4589C48.221 28.3421 49.441 27.5258 49.6818 27.5618C49.7521 27.5724 49.5062 27.8048 49.1353 28.0782ZM85.2794 33.6479C85.2582 33.7896 85.398 33.8601 85.5901 33.8041C85.7822 33.7482 85.9465 33.6543 85.9554 33.5951C85.9642 33.5359 85.8244 33.4657 85.6447 33.4388C85.465 33.4119 85.3006 33.5061 85.2794 33.6479ZM87.732 34C87.6008 34.1173 87.6495 34.2367 87.8396 34.2651C88.0298 34.2935 88.202 34.2072 88.222 34.0733C88.2421 33.9393 88.1938 33.8201 88.1144 33.8082C88.035 33.7963 87.8631 33.8826 87.732 34ZM67.9544 32.5981C67.8389 32.7522 67.7852 32.604 67.8353 32.2691C67.8854 31.9342 67.98 31.8084 68.0455 31.9893C68.1113 32.1704 68.0703 32.4444 67.9544 32.5981ZM48.8343 29.4271C48.8143 29.5611 48.7332 29.661 48.6538 29.6491C48.5745 29.6372 48.4353 29.5044 48.3443 29.3538C48.2532 29.2032 48.3346 29.1034 48.5248 29.1318C48.7149 29.1602 48.8544 29.2932 48.8343 29.4271ZM88.0752 37.2884C87.9699 37.992 87.7932 38.2422 87.4394 38.1893C87.0856 38.1363 86.9898 37.8454 87.095 37.1418C87.2003 36.4381 87.377 36.1879 87.7308 36.2408C88.0846 36.2938 88.1804 36.5847 88.0752 37.2884ZM79.9438 35.8231C79.9237 35.9571 80.5689 36.1656 81.3775 36.2866C82.1861 36.4075 82.8641 36.3969 82.8842 36.2629C82.9042 36.129 82.259 35.9204 81.4504 35.7995C80.6418 35.6785 79.9638 35.6892 79.9438 35.8231ZM68.905 37.4559C68.7717 37.6344 68.7029 37.5651 68.7297 37.2791C68.754 37.0202 68.8526 36.8881 68.949 36.9852C69.0454 37.0822 69.0257 37.2942 68.905 37.4559ZM69.3034 39.2585C69.1702 39.4371 69.1013 39.3677 69.1281 39.0817C69.1525 38.8229 69.2511 38.6907 69.3474 38.7878C69.4438 38.8849 69.4241 39.0968 69.3034 39.2585ZM73.2475 40.3619C73.215 40.5968 73.0416 40.7668 72.8619 40.74C72.6823 40.7131 72.5908 40.3351 72.6585 39.9003C72.7523 39.3003 72.8451 39.2091 73.0441 39.5222C73.1882 39.7492 73.2796 40.1269 73.2475 40.3619ZM69.9557 41.5971C69.8224 41.7756 69.7536 41.7063 69.7804 41.4202C69.8047 41.1614 69.9033 41.0293 69.9997 41.1264C70.0961 41.2234 70.0764 41.4354 69.9557 41.5971ZM70.509 43.0026C70.489 43.1365 70.3548 43.0604 70.2107 42.8334C70.0666 42.6065 69.9651 42.3112 69.9852 42.1772C70.0052 42.0433 70.1395 42.1194 70.2835 42.3463C70.4276 42.5733 70.5291 42.8686 70.509 43.0026ZM71.1439 45.096C71.032 45.156 70.8696 44.9935 70.7827 44.735C70.6575 44.3614 70.699 44.339 70.9861 44.6259C71.1848 44.8247 71.2557 45.0363 71.1439 45.096ZM85.6721 51.122C85.3831 51.2115 84.9261 51.2518 84.6566 51.2114C84.2211 51.1463 84.225 51.1203 84.6919 50.9754C84.9809 50.8859 85.4378 50.8457 85.7074 50.886C86.1429 50.9512 86.139 50.9772 85.6721 51.122ZM88.2209 51.947C88.2052 52.0517 87.8132 52.1044 87.3499 52.064C86.8616 52.0216 86.607 51.9016 86.7443 51.7787C87.0235 51.5289 88.2623 51.6701 88.2209 51.947ZM94.6366 53.1113C94.5161 53.1759 94.2328 53.1425 94.0078 53.0369C93.7587 52.9202 93.8447 52.8741 94.2271 52.9193C94.573 52.9603 94.7572 53.0466 94.6366 53.1113ZM52.5294 51.272C52.7787 51.5231 52.3034 51.6301 51.3427 51.5389C50.6597 51.4741 50.3942 51.3216 50.3513 50.9698C50.2959 50.5158 52.0155 50.7546 52.5294 51.272ZM52.807 52.567C53.6044 52.93 52.4829 54.3315 51.3828 54.3465C50.1339 54.3638 49.821 54.0954 49.9653 53.1305C50.105 52.1964 51.42 51.9357 52.807 52.567ZM47.0416 61.6369C46.7915 61.8021 46.6642 62.0659 46.7592 62.2231C46.8543 62.3802 46.781 62.4863 46.5961 62.4586C46.4115 62.431 46.3111 62.5575 46.3727 62.7397C46.8114 64.0337 88.2305 108.964 87.1959 107.922C86.6714 107.393 86.7168 106.274 87.2561 106.443C87.4919 106.517 88.7296 111.61 88.6772 111.426C88.6212 111.231 88.3329 105.695 89.5229 105.39C90.6388 105.104 91.5671 104.767 91.586 104.641C91.6049 104.515 91.7967 104.438 92.0124 104.47C92.3172 104.516 92.3075 104.581 91.9687 104.762C91.3328 105.103 91.3864 105.381 92.0721 105.299C93.2446 105.158 44.7542 63.1336 46.0007 62.1311C46.6979 61.57 47.3201 61.1618 47.383 61.2238C47.4456 61.2857 47.2921 61.4716 47.0416 61.6369ZM53.8202 65.3444C53.705 66.1728 55.0649 68.4947 56.0169 69.0953C56.8504 69.6213 58.2429 71.484 58.1695 71.975C58.1596 72.041 55.3867 71.7383 52.0072 71.3023C48.628 70.8663 95.5407 111.781 94.9359 111.834C93.3877 111.968 43.4381 70.4519 45.3214 69.8865C46.9476 69.3984 52.1212 66.3704 52.8941 65.4549C53.3485 64.9163 53.8885 64.8519 53.8202 65.3444ZM86.204 107.126C86.167 107.373 86.2939 107.599 86.4864 107.627C86.6785 107.656 86.7517 107.919 86.6494 108.212C86.5468 108.505 86.2914 108.719 86.0816 108.687C85.8722 108.656 85.5892 108.69 85.4534 108.763C85.0424 108.983 84.3246 108.525 84.3905 108.084C84.4244 107.857 84.3401 107.548 84.2026 107.398C84.0591 107.241 84.202 106.805 84.5387 106.375C85.1814 105.553 86.3598 106.084 86.204 107.126ZM83.2943 107.39C83.2308 106.892 83.3225 106.958 83.7452 107.715C84.3813 108.856 84.4 109.231 83.7946 108.719C83.4264 108.407 83.3381 108.421 83.281 108.798C83.2316 109.124 82.5825 109.364 81.0064 109.638C79.7935 109.848 78.434 110.205 77.9857 110.431C77.5372 110.656 76.5049 111.077 75.6917 111.366C72.4661 112.514 70.9635 113.163 70.9111 113.431C70.8809 113.585 70.4039 113.909 69.8515 114.15C69.299 114.391 68.0994 115.202 67.1853 115.952C66.2715 116.702 65.4211 117.356 65.2954 117.406C64.9986 117.524 60.9907 121.182 60.3727 121.899C57.5052 125.228 50.9733 128.062 38.4017 118.101C25.9191 108.21 7.40339 85.4885 2.60994 98.4863C2.68664 98.9315 2.5734 99.1728 2.26882 99.2126C1.75164 99.2804 8.48622 102.445 9.00438 97.5465C9.20396 95.6605 52.887 132.586 52.9867 132.874C53.1414 133.32 53.1863 133.297 53.2933 132.715C53.3662 132.32 53.2722 132.077 53.0693 132.136C52.8772 132.192 52.7466 132.06 52.779 131.844C52.8114 131.627 52.9748 131.539 53.1421 131.649C53.415 131.828 53.9445 129.909 53.9877 128.586C53.9967 128.312 54.1349 128.225 54.3442 128.362C54.5808 128.518 54.6842 128.309 54.6798 127.684C54.6766 127.188 54.7788 126.767 54.907 126.75C55.0355 126.733 55.3041 126.239 55.5044 125.653C55.7043 125.066 56.0807 124.506 56.3405 124.408C56.606 124.308 56.8405 123.852 56.8756 123.368C56.9148 122.829 56.9637 122.743 57.0067 123.138C57.0723 123.743 57.0991 123.736 57.611 122.98C58.0693 122.303 58.0802 122.11 57.6858 121.645C57.2505 121.131 57.2647 121.115 57.9399 121.348C58.3334 121.484 58.5884 121.485 58.5067 121.35C58.4253 121.216 58.7337 120.646 59.1919 120.083C59.7838 119.357 59.9541 118.923 59.7795 118.583C59.6445 118.319 59.6529 118.027 59.7983 117.932C59.9436 117.838 59.8037 117.86 59.4868 117.982C59.17 118.104 58.7618 118.6 58.5795 119.084C58.2732 119.899 56.9273 120.842 56.576 120.489C56.4922 120.404 56.8822 119.902 57.443 119.373C58.0034 118.845 58.4962 118.185 58.5377 117.907C58.6064 117.448 58.9775 117.334 59.7123 117.546C59.8632 117.59 60.2102 117.529 60.484 117.412C60.8013 117.275 60.9682 117.29 60.9441 117.451C60.9233 117.59 60.731 117.721 60.5165 117.741C60.3021 117.762 60.175 117.948 60.2338 118.155C60.3055 118.408 60.5682 118.291 61.0326 117.799C61.4132 117.396 61.5547 117.116 61.3469 117.176C61.1308 117.239 60.9872 117.096 61.0118 116.842C61.0461 116.485 61.0007 116.463 60.778 116.73C60.5256 117.034 59.6438 117.212 59.6827 116.952C59.8266 115.989 60.9216 115.599 61.4399 116.325C61.8045 116.835 61.8794 116.852 62.4797 116.566C63.1994 116.223 63.4221 115.632 62.8631 115.548C62.6641 115.518 62.5593 115.665 62.6303 115.874C62.7165 116.128 62.609 116.186 62.306 116.048C61.7133 115.778 61.8089 115.271 62.5743 114.625C63.1967 114.099 64.1297 114.019 64.0581 114.497C64.0369 114.638 64.1767 114.709 64.3688 114.653C64.5609 114.597 64.7587 114.279 64.8085 113.946C64.8726 113.518 65.0531 113.385 65.4261 113.493C65.7162 113.577 66.0381 113.517 66.1419 113.362C66.262 113.181 66.1346 113.104 65.7909 113.149C65.4526 113.193 65.2708 113.089 65.3036 112.869C65.3531 112.539 66.1654 112.277 67.4969 112.163C67.8227 112.135 68.1141 111.945 68.1448 111.739C68.1755 111.534 68.3623 111.391 68.5596 111.42C68.7573 111.45 69.6006 111.087 70.4339 110.613C71.2673 110.14 72.2917 109.725 72.7098 109.692C73.1743 109.655 73.4995 109.437 73.5451 109.132C73.6009 108.759 73.7742 108.688 74.2322 108.85C74.8463 109.068 76.2882 108.47 76.3376 107.977C76.3511 107.842 76.9448 107.673 77.6575 107.603C78.37 107.531 79.2406 107.336 79.592 107.168C79.9434 107.001 80.2165 106.959 80.199 107.076C80.1815 107.193 80.5359 107.037 80.9867 106.729L81.8059 106.17L82.5898 107.093C83.3277 107.961 83.3689 107.978 83.2943 107.39ZM86.5164 110.62C86.3853 110.737 86.1032 110.805 85.8895 110.771C85.656 110.734 85.7108 110.644 86.0263 110.547C86.6992 110.338 86.8122 110.355 86.5164 110.62ZM63.188 74.1534C65.6323 78.5045 63.5882 74.4545 63.1527 74.3894C62.8832 74.3491 62.458 74.1769 62.2079 74.0068C61.8038 73.7317 61.8077 73.7056 62.2432 73.7708C62.5127 73.8111 60.7438 69.8023 63.188 74.1534ZM82.5984 111.133C82.5901 111.189 81.8767 111.412 81.0132 111.629C80.1497 111.846 79.5452 111.932 79.6701 111.82C79.9844 111.539 82.6306 110.918 82.5984 111.133ZM94.601 113.193C94.5055 113.244 94.1365 113.284 93.7804 113.282C93.4247 113.28 92.9034 113.308 92.6224 113.344C92.3414 113.38 91.27 113.509 90.2415 113.63C89.2131 113.75 87.3999 114.048 86.2125 114.291C85.025 114.535 83.9867 114.724 83.9053 114.712C82.3682 114.482 71.0849 119.511 69.088 121.316C68.4812 121.864 67.2324 122.306 67.2852 121.953C67.3042 121.826 67.5988 121.616 67.9392 121.488C68.28 121.36 68.9172 120.868 69.3555 120.394C71.903 117.639 81.4813 113.837 88.1761 112.923C89.7902 112.703 95.0993 112.926 94.601 113.193ZM52.1803 73.5889L53.2123 74.0403L51.7666 74.1214C50.9713 74.166 48.9716 74.1789 47.3224 74.1504C37.9563 73.9883 77.6791 118.048 72.7782 122.076C72.5688 122.248 71.6461 122.983 70.7279 123.709C68.8122 125.223 66.0504 128.708 65.2672 130.599C64.9731 131.308 64.6224 131.984 64.4877 132.101C64.1577 132.387 63.9569 133.256 63.4773 136.471C63.2544 137.966 12.7631 98.0001 12.5972 98.0485C12.431 98.0969 62.7358 137.731 63.0636 135.733C63.3911 133.736 63.5348 132.083 63.3832 132.06C63.2316 132.038 63.1496 131.773 63.2009 131.473C63.2938 130.932 63.2983 130.933 63.7024 131.61L64.1102 132.293L64.0255 131.658C63.9162 130.839 64.6487 128.49 64.9516 128.689C65.2275 128.87 65.6652 128.317 65.7629 127.665C65.8013 127.408 66.1755 127.014 66.595 126.789L67.3568 126.38L66.6407 126.441C65.9321 126.5 65.9319 126.492 66.6112 125.714C66.9892 125.281 67.5297 124.952 67.8122 124.984C68.17 125.024 68.204 124.984 67.9238 124.852C67.6379 124.718 67.7816 124.523 68.4207 124.181C68.9153 123.916 69.4596 123.398 69.6302 123.03C69.8321 122.596 70.0898 122.43 70.3662 122.556C70.6686 122.694 70.7621 122.596 70.6895 122.217C70.582 121.653 71.1985 121.554 71.3535 122.109C71.4033 122.288 71.4979 122.076 71.5634 121.638C71.7199 120.591 73.0695 119.824 73.4656 120.557C73.6056 120.816 73.8332 120.967 73.972 120.892C74.1106 120.818 74.0127 120.544 73.754 120.284C73.1343 119.659 73.1717 119.603 74.0256 119.877C74.5273 120.038 74.6245 120.02 74.3493 119.817C74.0476 119.594 74.248 119.391 75.206 118.95C75.8936 118.634 76.3789 118.297 76.284 118.202C76.1891 118.106 76.4128 118.073 76.7814 118.128C77.175 118.187 77.5509 118.039 77.6934 117.769C77.8267 117.517 78.3131 117.262 78.7749 117.203C79.2364 117.144 80.0614 116.876 80.6082 116.607C81.1551 116.339 81.7223 116.198 81.8686 116.294C82.015 116.39 82.1518 116.353 82.1728 116.212C82.1939 116.071 83.1384 115.775 84.2714 115.553C85.4044 115.332 86.2524 115.072 86.1558 114.974C86.0591 114.877 86.4118 114.792 86.9394 114.787C87.467 114.781 88.5206 114.639 89.2804 114.473C91.0076 114.093 44.1403 72.7608 44.8858 73.0626C45.3239 73.2399 45.3547 73.2216 45.0265 72.9793C44.726 72.7573 45.35 72.7329 47.2104 72.8941C48.6428 73.0182 50.0406 73.1172 50.3166 73.1139C51.0742 73.105 51.0739 73.1049 52.1803 73.5889ZM65.3255 76.2408C65.4627 76.3467 65.3637 76.4609 65.1052 76.4947C64.8098 76.5334 64.6441 76.3724 64.659 76.0609C64.672 75.7884 64.7713 75.6743 64.8793 75.807C64.9874 75.9399 65.188 76.135 65.3255 76.2408ZM67.5152 77.0416C67.6713 77.065 67.725 76.9609 67.6339 76.8104C67.2727 76.2128 68.2705 76.6989 68.988 77.4698C69.4075 77.9208 69.9416 78.2716 70.1744 78.2491C70.6702 78.2013 70.672 78.4864 70.1783 78.918C69.9089 79.1536 69.7344 79.143 69.4139 78.8717C69.0985 78.6046 68.8964 78.5754 68.5718 78.7494C68.2446 78.9249 68.1606 78.8722 68.2127 78.5237C68.2501 78.2738 68.1732 78.1268 68.0418 78.1973C67.9103 78.2678 67.6137 78.1652 67.3824 77.9695C67.0551 77.6922 66.8861 77.6813 66.6196 77.9196C66.0091 78.466 65.3141 77.4629 65.6957 76.5865C66.0136 75.8564 66.0167 75.8559 66.6225 76.4263C66.9572 76.7413 67.3587 77.0182 67.5152 77.0416ZM78.7647 112.2C78.4757 112.289 78.0923 112.34 77.9126 112.313C77.7329 112.287 77.8223 112.191 78.1112 112.102C78.4002 112.012 78.7836 111.961 78.9633 111.988C79.143 112.015 79.0536 112.11 78.7647 112.2ZM59.7215 110.401C59.4611 110.541 59.3067 110.533 59.3295 110.38C59.3781 110.055 59.8077 109.825 60.0013 110.02C60.0838 110.103 59.9579 110.275 59.7215 110.401ZM74.9385 113.215C74.9309 113.266 74.6451 113.419 74.303 113.556C73.7395 113.781 73.7294 113.771 74.1932 113.446C74.6809 113.104 74.9685 113.015 74.9385 113.215ZM88.6772 111.426C89.5648 111.696 61.0013 78.956 61.7684 79.2924C62.5354 79.6287 63.882 80.2173 64.7609 80.6008C69.5128 82.6728 76.388 87.4292 78.5889 90.1672C80.7207 92.8192 81.872 94.3948 81.8389 94.6157C81.772 95.0634 74.206 100.271 73.5823 100.299C73.2447 100.313 72.938 100.528 72.901 100.776C72.8462 101.142 68.8861 103.958 66.5469 105.294C66.2456 105.466 64.4821 106.704 62.6281 108.045C60.7741 109.387 58.5689 110.954 57.728 111.529C56.0593 112.67 55.4844 113.631 55.7516 114.832C56.0018 115.957 55.629 115.971 54.5038 114.878C53.5175 113.92 53.515 113.919 53.8186 114.647C53.986 115.048 54.2311 115.393 54.3627 115.413C55.5072 115.584 54.8676 116.486 52.2067 118.452C47.6579 121.813 46.5862 125.745 49.5243 128.293C49.8805 128.602 50.6372 129.249 51.2055 129.731L52.2392 130.607L48.3391 129.883C44.2155 129.118 38.8038 127.384 37.3425 126.359C36.3519 125.664 34.925 124.956 34.3382 124.868C32.6511 124.616 25.7976 119.106 22.3105 115.2C21.6025 114.407 20.8036 113.619 20.5353 113.451C19.2027 112.612 16.1536 107.472 15.4773 104.923C15.3361 104.391 15.1262 103.83 15.0106 103.675C14.424 102.892 43.933 132.027 44.1731 129.328C45.5456 113.887 67.5928 105.019 88.6772 111.426ZM65.0719 78.8186C64.9513 78.8832 64.6681 78.8498 64.443 78.7442C64.1939 78.6275 64.28 78.5814 64.6624 78.6266C65.0083 78.6677 65.1925 78.754 65.0719 78.8186ZM57.2436 112.705C56.9852 112.934 56.7175 113.064 56.6487 112.995C56.5245 112.87 57.3475 112.233 57.5876 112.269C57.6569 112.28 57.5023 112.476 57.2436 112.705ZM78.4449 81.9756C78.657 82.1787 79.5723 82.9157 80.4783 83.6134C82.022 84.8025 82.9848 85.7418 86.0768 89.0763C87.1894 90.276 87.6385 91.5056 86.9249 91.3988C86.7838 91.3777 86.6931 91.1934 86.7237 90.989C86.7542 90.7849 86.4272 90.4586 85.9971 90.264C85.5669 90.0695 85.2245 89.8464 85.2362 89.7683C85.2478 89.6901 85.4295 89.7327 85.6395 89.8632C85.8498 89.9935 85.5376 89.6174 84.9462 89.0272C84.3544 88.4369 83.7901 87.9419 83.6921 87.9273C83.5937 87.9126 82.8253 87.2212 81.9845 86.3908C79.5602 83.9968 79.1676 83.6577 78.9523 83.7729C78.5746 83.9756 77.0464 82.3414 77.3945 82.1069C77.5764 81.9845 77.6391 81.7979 77.534 81.692C77.1752 81.3308 78.0573 81.6054 78.4449 81.9756ZM81.4299 82.8342C87.1664 85.6773 88.6287 87.0621 91.1245 92.0175C91.3852 92.5348 91.3649 92.7086 91.0328 92.8093C90.1886 93.0648 89.7913 92.8002 88.6461 91.2205C87.1564 89.1653 82.1774 84.2256 80.3996 83.0387C78.2932 81.6325 78.8016 81.5317 81.4299 82.8342ZM94.1571 91.4146C96.9652 93.7887 97.2743 94.8596 95.5482 96.2369C94.7532 96.8713 94.1864 96.9247 94.2713 96.3572C94.3013 96.1562 94.1789 95.9699 93.9992 95.943C93.8195 95.9161 93.6851 95.8096 93.7006 95.7063C93.716 95.6031 92.9701 94.0627 92.0427 92.2836C89.7985 87.9773 89.9957 87.8962 94.1571 91.4146ZM94.3187 89.6596C94.8338 89.952 95.1771 90.2337 95.0813 90.2851C94.9854 90.3365 94.4459 90.0798 93.8829 89.7149C92.6759 88.9326 92.9721 88.895 94.3187 89.6596ZM96.4877 91.7709C97.1114 92.3779 97.5697 92.9588 97.5064 93.0622C97.4432 93.1658 97.5598 93.2014 97.7651 93.1415C98.1507 93.0293 96.2051 90.7956 95.6491 90.7119C95.4867 90.6874 95.864 91.1641 96.4877 91.7709ZM66.9929 120.959C66.7025 121.224 65.9032 121.941 65.2168 122.552C64.5162 123.176 64.0552 123.807 64.1657 123.99C64.2831 124.184 64.2336 124.231 64.0434 124.106C63.6523 123.85 61.984 126.031 60.5442 128.68C59.6542 130.318 59.3817 131.301 58.7281 135.223L7.78635 98.6108L5.77415 98.466L6.17315 95.7984C6.64285 92.658 24.9253 109.851 40.8418 118.522C52.8885 125.085 63.2307 123.836 65.4634 121.926C67.0487 120.571 68.2606 119.804 66.9929 120.959ZM89.4592 92.8344C90.963 93.4301 91.0682 93.7319 89.6541 93.3934C89.0953 93.2596 88.3992 93.2528 88.1069 93.3784C87.8145 93.504 87.195 93.5259 86.7301 93.4272C86.2652 93.3285 86.0602 93.3367 86.2747 93.4458C86.4893 93.5545 86.5678 93.7304 86.4491 93.8364C86.3303 93.9429 86.0571 93.8646 85.8402 93.6619C85.3438 93.198 85.6058 92.9446 86.4517 93.0711C86.848 93.1304 87.0328 93.049 86.9212 92.8644C86.4994 92.1669 87.7364 92.1525 89.4592 92.8344ZM66.016 123.739C65.7637 123.998 65.492 124.145 65.4121 124.065C65.3323 123.984 65.4735 123.706 65.7257 123.447C65.978 123.187 66.2498 123.04 66.3296 123.121C66.4094 123.201 66.2683 123.479 66.016 123.739ZM55.3324 122.95C55.2168 123.104 55.1632 122.956 55.2133 122.621C55.2633 122.286 55.358 122.16 55.4234 122.341C55.4892 122.523 55.4482 122.796 55.3324 122.95ZM92.5756 95.1349C93.1499 96.0585 93.2442 96.4374 92.941 96.5999C92.6377 96.7625 92.5473 96.7171 92.5911 96.4248C92.6616 95.9531 91.833 94.3777 91.4857 94.3235C91.3509 94.3026 91.2573 94.1758 91.2774 94.0419C91.3534 93.5333 91.8284 93.9331 92.5756 95.1349ZM84.6577 93.6357C84.6508 93.682 84.2833 93.879 83.8406 94.0737L83.0361 94.4277L83.7405 93.9728C84.4023 93.5454 84.6869 93.4408 84.6577 93.6357ZM88.1327 94.9677C88.1048 95.1542 88.229 95.3289 88.4087 95.3558C88.5884 95.3827 88.7603 95.2378 88.7909 95.0337C88.8394 94.7091 88.9405 94.7277 89.6035 95.1839C90.0199 95.4706 90.3297 95.9116 90.2919 96.1641C90.2541 96.4167 90.3611 96.6439 90.5297 96.6691C90.6983 96.6943 90.7819 96.9277 90.7157 97.1877C90.6323 97.5151 90.3822 97.6151 89.9021 97.5127C89.4202 97.41 89.2722 97.2447 89.4171 96.9705C89.5452 96.7277 89.3313 96.3738 88.8607 96.0497C87.9019 95.3898 86.9851 94.0829 87.7134 94.4144C87.9721 94.5321 88.1606 94.7811 88.1327 94.9677ZM67.2312 125.664C67.3223 125.814 67.4614 125.947 67.5408 125.959C67.6202 125.971 67.7012 125.871 67.7213 125.737C67.7413 125.603 67.6019 125.47 67.4117 125.442C67.2216 125.413 67.1402 125.513 67.2312 125.664ZM88.9848 95.3631C88.8834 95.4599 89.0624 95.8022 89.3817 96.1239L89.9629 96.7088L89.6407 96.0381C89.2273 95.1772 89.2042 95.1536 88.9848 95.3631ZM54.5617 124.391C54.5317 124.592 54.36 124.735 54.1803 124.708C54.0007 124.681 53.8782 124.494 53.9083 124.294C53.9383 124.093 54.1099 123.95 54.2896 123.977C54.4693 124.004 54.5918 124.19 54.5617 124.391ZM82.7766 94.9059C82.3763 95.1699 82.3633 95.2728 82.7016 95.4945C83.0365 95.7139 83.0005 95.823 82.5059 96.0882C82.1725 96.2669 81.717 96.6012 81.4936 96.831C81.2705 97.0608 80.9325 97.2256 80.7433 97.1973C80.5538 97.169 80.8301 96.8654 81.3569 96.5229C82.199 95.9756 82.9033 95.0364 82.0912 95.5439C80.6483 96.4458 80.1902 96.9493 80.415 97.3868C80.6654 97.8747 80.4911 98.0481 78.3875 99.406C77.841 99.7587 77.3165 99.9696 77.2221 99.8743C77.1275 99.7793 77.509 99.4285 78.0696 99.0947C78.6299 98.7612 79.1651 98.3497 79.2589 98.1802C79.8239 97.1582 79.7612 97.0348 79.0414 97.752C78.5931 98.1987 78.0817 98.5423 77.905 98.5158C77.7282 98.4894 78.2093 97.973 78.9735 97.3684C80.6623 96.0328 82.8732 94.5279 83.0973 94.5614C83.1875 94.5749 83.043 94.7298 82.7766 94.9059ZM47.3885 126.695C46.7375 128.108 46.7046 128.136 46.8237 127.172C46.9465 126.181 47.685 124.797 47.9491 125.063C48.0208 125.135 47.7684 125.869 47.3885 126.695ZM84.0996 98.4346C85.0424 100.537 84.4176 100.817 78.4209 100.982L77.4539 101.009L78.357 100.293C83.2355 96.4239 83.2023 96.4347 84.0996 98.4346ZM94.3622 100.216C94.3434 100.342 94.1708 100.491 93.9787 100.546C93.7866 100.602 93.6551 100.477 93.6863 100.268C93.7175 100.06 93.8901 99.9107 94.0698 99.9376C94.2495 99.9645 94.3811 100.089 94.3622 100.216ZM96.7221 100.988C96.8015 101.223 96.5214 101.714 96.0992 102.078C95.6772 102.443 95.3489 102.61 95.3698 102.45C95.3907 102.29 95.5648 102.113 95.7568 102.057C95.9489 102.002 96.1389 101.737 96.1789 101.469C96.219 101.201 96.0946 101.027 95.9026 101.083C95.5142 101.196 95.4803 100.824 95.8605 100.62C96.2611 100.406 96.5688 100.537 96.7221 100.988ZM51.7807 128.878C51.6474 129.056 51.5786 128.987 51.6054 128.701C51.6297 128.442 51.7283 128.31 51.8247 128.407C51.9211 128.504 51.9014 128.716 51.7807 128.878ZM92.3045 101.505C92.1582 101.709 91.9058 101.855 91.7441 101.831C91.582 101.807 91.6608 101.599 91.9195 101.37C92.4644 100.887 92.6916 100.967 92.3045 101.505ZM76.0938 99.8054C75.7353 99.9958 75.7022 99.9622 75.9312 99.6417C76.09 99.4199 76.2928 99.312 76.3822 99.4021C76.4717 99.4919 76.342 99.6735 76.0938 99.8054ZM53.1592 130.827C53.026 131.005 52.9572 130.936 52.9839 130.65C53.0083 130.391 53.1069 130.259 53.2033 130.356C53.2996 130.453 53.28 130.665 53.1592 130.827ZM76.9772 100.322C76.961 100.43 76.6931 100.698 76.3824 100.917C76.012 101.178 75.8648 101.197 75.9565 100.973C76.1693 100.45 77.0412 99.8938 76.9772 100.322ZM94.2132 103.445C93.764 103.907 93.1344 103.958 93.1988 103.528C93.22 103.386 93.36 103.35 93.5096 103.448C93.6596 103.547 93.8907 103.476 94.0239 103.291C94.1567 103.106 94.3488 102.967 94.4507 102.983C94.5523 102.998 94.4457 103.206 94.2132 103.445ZM97.956 103.915C98.1354 104.445 97.6981 105.211 97.2541 105.145C97.0643 105.117 97.059 104.882 97.2417 104.585C97.5247 104.124 97.496 104.099 96.9492 104.334C96.3902 104.574 96.3814 104.548 96.8369 104.004C97.4041 103.327 97.7472 103.3 97.956 103.915ZM85.5816 102.689C85.3109 103.44 84.5127 103.579 83.4146 103.064L82.4782 102.625L83.8524 102.369C85.6191 102.041 85.8024 102.075 85.5816 102.689ZM60.3361 134.281C60.2062 134.638 60.1901 134.328 60.3003 133.591C60.4105 132.854 60.5167 132.562 60.5364 132.942C60.5562 133.321 60.466 133.924 60.3361 134.281ZM92.1862 104.619C92.2711 104.759 92.2067 104.912 92.0436 104.96C91.8805 105.008 91.7707 104.887 91.7999 104.692C91.8613 104.281 91.9699 104.261 92.1862 104.619ZM96.4015 105.901C95.8503 106.226 95.7972 106.147 96.1356 105.506C96.3266 105.144 96.4793 105.084 96.6188 105.315C96.7313 105.5 96.6334 105.764 96.4015 105.901ZM71.9899 102.678C71.6314 102.868 71.5984 102.834 71.8274 102.514C71.9861 102.292 72.189 102.184 72.2784 102.274C72.3678 102.364 72.2381 102.546 71.9899 102.678ZM80.4932 103.613C79.6715 103.579 78.4692 103.665 77.8218 103.804C76.1816 104.156 76.0909 103.873 77.7234 103.498C78.5339 103.311 79.6259 103.286 80.5201 103.433L81.9871 103.675L80.4932 103.613ZM90.7813 105.804C89.7478 106.453 89.6683 106.412 90.4674 105.644C90.8271 105.297 91.2227 105.08 91.3461 105.161C91.47 105.242 91.2156 105.532 90.7813 105.804ZM95.3429 106.101C95.3001 106.386 95.164 106.477 95.0099 106.321C94.8665 106.177 94.8657 105.954 95.008 105.827C95.3706 105.502 95.4257 105.547 95.3429 106.101ZM70.4411 103.714C70.0173 104.111 69.3154 104.594 68.8806 104.788C68.1461 105.115 68.7733 104.552 70.628 103.217C71.3092 102.727 71.2079 102.995 70.4411 103.714ZM94.6052 106.939C94.2815 106.939 94.0969 107.072 94.1949 107.235C94.2985 107.406 94.2317 107.437 94.0355 107.308C93.5075 106.962 94.0737 106.419 94.6731 106.697C95.1479 106.917 95.1417 106.938 94.6052 106.939ZM80.5342 105.393C79.7101 105.577 79.1926 105.562 78.816 105.342C77.6212 104.645 78.7697 104.381 80.7753 104.891L81.7139 105.13L80.5342 105.393ZM98.553 107.803C98.7522 108.191 98.6724 108.374 98.2216 108.563C97.7006 108.781 97.664 108.76 97.9238 108.392C98.1471 108.076 98.0929 107.989 97.7049 108.04C97.0787 108.122 97.0723 107.955 97.6874 107.574C98.2752 107.21 98.2447 107.202 98.553 107.803ZM77.4736 104.877C77.3621 104.937 77.1096 104.823 76.9127 104.623C76.6285 104.335 76.6702 104.313 77.116 104.514C77.4245 104.654 77.5854 104.817 77.4736 104.877ZM89.7098 106.756C89.6898 106.889 89.5175 106.976 89.3274 106.947C89.1373 106.919 89.0886 106.8 89.2197 106.682C89.3509 106.565 89.5228 106.479 89.6022 106.49C89.6815 106.502 89.7298 106.622 89.7098 106.756ZM93.3137 107.921C92.9624 108.049 92.629 108.108 92.5726 108.051C92.3843 107.861 93.456 107.366 93.7061 107.528C93.8417 107.615 93.6652 107.792 93.3137 107.921ZM69.9767 105.103C69.7164 105.243 69.562 105.234 69.5848 105.082C69.6334 104.757 70.063 104.526 70.2566 104.722C70.339 104.805 70.2132 104.976 69.9767 105.103ZM86.6332 107.889C86.2623 108.163 85.9046 108.334 85.8388 108.27C85.7189 108.153 86.939 107.337 87.1797 107.373C87.25 107.384 87.0041 107.616 86.6332 107.889ZM93.5728 109.02C92.9501 109.338 92.9437 109.331 93.4337 108.88C93.716 108.62 94.0093 108.471 94.0857 108.548C94.162 108.625 93.9311 108.837 93.5728 109.02ZM92.1272 108.595C92.3193 108.427 92.4612 108.405 92.4431 108.546C92.371 109.102 91.5772 109.275 91.2391 108.809C90.96 108.424 90.6575 108.553 89.0809 109.728C88.0726 110.48 87.1943 111.041 87.1296 110.976C87.0135 110.859 88.7888 109.512 90.2104 108.639C90.7879 108.284 91.0273 108.265 91.359 108.546C91.6846 108.821 91.8559 108.832 92.1272 108.595ZM10.0636 96.5859C10.0436 96.7199 9.96249 96.8198 9.8831 96.8079C9.80371 96.7961 9.66459 96.6632 9.57354 96.5126C9.48249 96.3621 9.5639 96.2622 9.75405 96.2906C9.94419 96.3191 10.0836 96.452 10.0636 96.5859ZM73.4697 105.906C73.4628 105.953 73.0953 106.15 72.6526 106.344L71.8481 106.699L72.5525 106.244C73.2143 105.816 73.4989 105.712 73.4697 105.906ZM68.1515 106.585C67.5508 106.938 66.8133 107.499 66.5119 107.83C66.2108 108.162 65.8423 108.415 65.693 108.392C65.5436 108.37 65.3969 108.516 65.3668 108.717C65.305 109.131 64.7819 109.13 64.5318 108.717C64.4408 108.566 64.4854 108.46 64.6309 108.481C64.7764 108.502 65.3224 108.163 65.844 107.728C67.06 106.716 68.9187 105.616 69.1019 105.8C69.1797 105.879 68.7521 106.232 68.1515 106.585ZM66.3481 106.623C65.7015 107.142 65.0992 107.557 65.0093 107.543C64.9195 107.53 65.3748 107.094 66.0214 106.574C66.6679 106.054 67.2703 105.64 67.3602 105.654C67.45 105.667 66.9947 106.103 66.3481 106.623ZM96.0174 110.13C95.8044 110.199 95.3445 110.549 94.9959 110.908C94.5103 111.408 94.3757 111.45 94.4192 111.09C94.4826 110.568 95.4931 109.86 96.048 109.948C96.3041 109.989 96.2953 110.041 96.0174 110.13ZM85.8058 109.409C85.077 110.183 85.0112 110.194 85.0425 109.538C85.0559 109.263 85.1809 109.113 85.3205 109.205C85.4602 109.296 85.683 109.22 85.8162 109.035C85.9491 108.85 86.1398 108.712 86.2398 108.727C86.3401 108.742 86.1446 109.048 85.8058 109.409ZM71.2591 107.512C70.8362 107.758 70.4745 108.066 70.4549 108.197C70.4353 108.328 70.3398 108.355 70.2425 108.257C70.1453 108.159 70.4429 107.786 70.9039 107.429C71.3649 107.071 71.8061 106.843 71.8848 106.922C71.9632 107.001 71.6816 107.267 71.2591 107.512ZM90.4949 109.881C90.1602 109.971 89.8643 110.189 89.8377 110.367C89.8111 110.545 89.5221 110.804 89.1956 110.944C88.653 111.175 88.646 111.15 89.1168 110.651C89.8552 109.868 90.3172 109.584 90.7364 109.656C90.9387 109.69 90.8297 109.791 90.4949 109.881ZM80.5468 109.001C80.1713 109.144 79.793 109.19 79.7062 109.103C79.5239 108.919 80.4187 108.609 80.9034 108.687C81.0827 108.716 80.9223 108.857 80.5468 109.001ZM92.7915 111.387C92.2011 111.813 91.2317 112.561 90.6373 113.051C90.0429 113.542 89.3052 114.048 88.9978 114.176C88.6904 114.304 89.5301 113.536 90.8635 112.468C92.1969 111.401 93.4175 110.547 93.5763 110.571C93.7351 110.595 93.3822 110.962 92.7915 111.387ZM13.015 99.8931C13.024 101.233 13.5066 102.842 14.6432 105.321C14.8341 105.738 14.9488 106.315 14.8985 106.605C14.8242 107.03 14.7411 106.967 14.4662 106.277C14.2789 105.807 13.9532 105.03 13.7427 104.55C13.078 103.034 12.4986 100.405 12.6323 99.5107C12.7979 98.404 13.0065 98.6125 13.015 99.8931ZM70.913 108.862C70.2039 109.444 69.2712 110.126 68.8403 110.377C68.4094 110.627 68.0415 110.934 68.0228 111.058C67.9713 111.403 65.8734 112.637 65.6766 112.439C65.5817 112.343 65.4759 112.454 65.4413 112.685C65.4026 112.944 65.2419 113.016 65.0225 112.873C64.7743 112.71 64.7174 112.791 64.8351 113.141C64.9687 113.539 64.9292 113.568 64.6447 113.284C64.36 112.999 64.425 112.841 64.9597 112.52C65.3303 112.298 65.5508 112.032 65.4495 111.93C65.3478 111.828 64.9156 111.96 64.4887 112.223C64.0618 112.487 64.2683 112.254 64.9472 111.706C66.3642 110.562 67.5218 109.942 67.4591 110.361C67.436 110.516 67.5801 110.667 67.779 110.696C67.9956 110.729 68.0985 110.51 68.035 110.153C67.961 109.739 68.2281 109.34 68.906 108.852C69.4439 108.464 69.7599 108.335 69.6086 108.565C69.0044 109.48 69.7173 109.451 70.7886 108.516C71.4141 107.97 71.9879 107.587 72.0639 107.663C72.1397 107.74 71.6218 108.279 70.913 108.862ZM93.972 111.688C93.941 111.855 93.4974 112.144 92.9858 112.33C92.0393 112.675 92.1548 112.399 93.2474 111.704C93.9059 111.286 94.0467 111.283 93.972 111.688ZM74.0189 109.989C74.3979 110.152 74.492 110.3 74.2621 110.372C72.6021 110.89 72.9827 113.218 74.7712 113.485C75.3465 113.571 75.3143 113.624 74.4799 113.959L73.542 114.336L71.5935 112.856C69.3114 111.124 69.3103 111.118 71.142 109.745C72.4696 108.75 72.5776 108.718 72.9764 109.205C73.2094 109.489 73.6784 109.842 74.0189 109.989ZM8.03371 99.7061C9.86693 106.807 12.1521 111.382 16.3761 116.407C18.4328 118.854 25.7154 124.783 28.6226 126.379C31.4922 127.953 30.8118 127.908 27.4143 126.299C17.5 121.605 9.62189 113.624 7.08054 105.701C5.93747 102.138 5.70685 99.6596 6.49164 99.3726C7.37076 99.0512 7.89396 99.1643 8.03371 99.7061ZM64.4778 107.962C64.4577 108.096 64.2855 108.182 64.0953 108.153C63.9052 108.125 63.8566 108.006 63.9877 107.888C64.1188 107.771 64.2907 107.685 64.3701 107.697C64.4495 107.708 64.4978 107.828 64.4778 107.962ZM85.3984 111.683C85.0471 111.94 84.2641 112.19 83.6585 112.239C82.3183 112.347 82.501 112.086 83.9161 111.871C84.478 111.785 85.0578 111.52 85.2048 111.28C85.3518 111.041 85.5991 110.929 85.7545 111.031C85.9109 111.133 85.7513 111.425 85.3984 111.683ZM88.6772 111.426C88.6697 111.477 88.4189 111.623 88.1198 111.752C87.6654 111.947 87.6197 111.924 87.8419 111.616C88.0687 111.301 88.718 111.153 88.6772 111.426ZM62.8185 109.153L61.7955 109.677L62.6682 109.001C63.148 108.63 63.6084 108.394 63.6912 108.477C63.7739 108.561 63.3811 108.864 62.8185 109.153ZM68.5868 109.456C68.3307 109.625 68.2241 109.86 68.3494 109.978C68.475 110.097 68.6643 110.066 68.7699 109.909C68.8757 109.753 69.0873 109.707 69.2404 109.808C69.3934 109.908 69.5351 109.88 69.5551 109.746C69.6205 109.309 69.0627 109.142 68.5868 109.456ZM87.2599 112.614C87.1261 112.868 86.8708 113.054 86.6928 113.027C86.5151 113.001 86.4845 112.819 86.6253 112.623C86.7661 112.428 86.8972 112.161 86.9168 112.03C86.9364 111.899 87.0765 111.873 87.228 111.972C87.3795 112.072 87.3941 112.361 87.2599 112.614ZM93.71 114.617C92.9447 117.619 92.6983 117.827 91.2857 116.671C90.6547 116.155 90.6243 116.075 91.1343 116.274C91.7092 116.499 91.7865 116.42 91.9005 115.486C92.0097 114.593 93.4719 112.796 94.0221 112.879C94.0914 112.889 93.951 113.671 93.71 114.617ZM3.02888 102.921C3.16042 103.192 3.36433 103.988 3.48207 104.69C3.59981 105.392 4.09001 106.783 4.57126 107.779C5.51816 109.74 5.66006 110.544 4.87063 109.476C4.14563 108.494 3.24979 106.415 3.32354 105.884C3.37707 105.497 3.32774 105.474 3.01594 105.741C2.72748 105.988 2.66617 105.906 2.74148 105.376C2.79493 105.001 2.66044 104.332 2.44291 103.891C2.22502 103.449 2.109 102.233 2.18482 101.188L2.32273 99.2877L2.55646 100.858C2.68482 101.722 2.89738 102.65 3.02888 102.921ZM91.5378 113.641C91.1769 113.946 90.8165 114.129 90.7366 114.049C90.6568 113.969 90.8867 113.653 91.2475 113.349C91.608 113.044 91.9685 112.861 92.0483 112.941C92.1282 113.022 91.8983 113.337 91.5378 113.641ZM64.6276 109.193C64.6105 109.307 64.2259 109.618 63.7726 109.885C63.3193 110.151 62.6673 110.602 62.323 110.887C61.9791 111.172 61.5994 111.31 61.4793 111.193C61.2945 111.013 62.3121 110.122 63.7852 109.175C64.2324 108.887 64.6719 108.897 64.6276 109.193ZM86.3016 113.84C86.2816 113.974 86.1474 113.898 86.0033 113.671C85.8592 113.444 85.7577 113.149 85.7777 113.015C85.7978 112.881 85.932 112.957 86.0761 113.184C86.2202 113.411 86.3217 113.706 86.3016 113.84ZM80.9756 112.803C80.5972 112.947 80.0591 113.028 79.7797 112.981C79.3736 112.914 79.4094 112.845 79.9592 112.635C80.3375 112.49 80.8757 112.41 81.155 112.456C81.5612 112.523 81.5254 112.593 80.9756 112.803ZM66.2213 111.077C65.4509 111.728 65.4339 111.84 66.0899 111.938C66.4522 111.992 66.5674 111.876 66.462 111.565C66.3778 111.317 66.4019 111.208 66.5154 111.322C66.7885 111.597 67.714 111.191 67.5252 110.879C67.2775 110.47 66.8667 110.532 66.2213 111.077ZM90.2197 114.513C90.2027 114.626 89.857 114.928 89.4514 115.183C88.5808 115.731 88.5223 115.398 89.3714 114.729C89.991 114.24 90.2712 114.168 90.2197 114.513ZM60.3858 110.822C60.1596 111.054 59.7943 111.297 59.5735 111.361C59.3046 111.44 59.2764 111.378 59.4881 111.176C60.3243 110.375 61.1279 110.058 60.3858 110.822ZM71.7637 114.01C72.5507 114.755 72.9724 115.362 72.8082 115.512C72.1841 116.085 67.2837 119.774 61.8824 123.737C58.7172 126.06 55.9988 128.211 55.8417 128.518C55.4892 129.206 54.4231 128.918 52.8932 127.719C50.1786 125.593 50.3278 123.394 53.3409 121.126C54.3651 120.355 55.715 119.316 56.3408 118.816C57.0713 118.234 57.8073 117.909 58.3971 117.909C59.1039 117.909 59.3366 117.769 59.4064 117.303C59.5053 116.642 60.9483 116.074 61.1049 116.635C61.2479 117.148 61.8677 117.057 61.7681 116.538C61.7084 116.224 61.9957 115.882 62.5526 115.605C63.0359 115.364 64.1319 114.651 64.9876 114.022C68.7898 111.225 68.8246 111.225 71.7637 114.01ZM0.610556 103.202C0.494994 103.356 0.441342 103.208 0.491431 102.873C0.541519 102.538 0.636153 102.413 0.701626 102.593C0.76739 102.775 0.726408 103.049 0.610556 103.202ZM61.2614 111.6C61.2572 111.628 61.0128 111.755 60.7183 111.881C60.2839 112.068 60.1929 112.044 60.2359 111.757C60.2651 111.562 60.5095 111.435 60.779 111.475C61.0485 111.516 61.2656 111.572 61.2614 111.6ZM76.3736 114.098C76.24 114.284 75.9815 114.413 75.7992 114.386C75.6077 114.357 75.6626 114.207 75.9286 114.032C76.1825 113.864 76.441 113.735 76.5031 113.744C76.5652 113.754 76.5069 113.913 76.3736 114.098ZM77.046 114.697C76.7464 114.858 76.3994 114.974 76.2746 114.955C76.1498 114.936 76.2554 114.784 76.5092 114.617C76.7631 114.449 77.1101 114.333 77.2807 114.359C77.4512 114.384 77.3456 114.536 77.046 114.697ZM87.6145 116.57C87.2754 116.893 87.2097 116.894 87.2489 116.576C87.2998 116.164 87.6988 115.846 87.9043 116.053C87.9722 116.122 87.8419 116.354 87.6145 116.57ZM89.3457 117.06C89.0161 117.408 88.767 117.548 88.7921 117.371C88.8503 116.964 89.6498 116.13 89.8184 116.3C89.8881 116.37 89.6753 116.712 89.3457 117.06ZM84.1567 116.354C83.9954 116.724 82.7916 117.866 81.481 118.89C80.1708 119.914 78.2474 121.42 77.2067 122.236C75.0559 123.923 74.2995 124.259 73.8571 123.723C73.6427 123.464 74.4129 122.75 76.7488 121.043C80.1262 118.575 80.6776 118.013 80.8499 116.861C80.9213 116.383 81.1586 116.124 81.5488 116.096C81.8736 116.073 82.5294 115.961 83.0057 115.847C84.3011 115.536 84.4788 115.614 84.1567 116.354ZM76.0589 115.394C76.041 115.514 75.7964 115.642 75.5153 115.679C75.2343 115.715 74.9792 115.913 74.9485 116.119C74.9178 116.324 74.7692 116.473 74.6186 116.45C74.4677 116.428 74.1498 116.632 73.9123 116.905C73.4377 117.45 72.1806 118.359 70.9326 119.061C70.4906 119.31 70.2026 119.525 70.2928 119.538C70.5924 119.583 68.0378 121.555 67.012 122.071C66.4579 122.35 66.0696 122.644 66.1494 122.724C66.2293 122.804 65.569 123.362 64.6824 123.964C63.7955 124.565 62.6535 125.387 62.1446 125.79C61.6353 126.193 61.0878 126.615 60.9283 126.728C59.0597 128.051 59.1627 128.001 59.4454 127.449C59.5898 127.166 59.9316 126.84 60.2047 126.722C60.4781 126.605 60.7269 126.34 60.7578 126.133C60.7887 125.926 60.8956 125.839 60.9955 125.94C61.0954 126.04 61.9294 125.488 62.849 124.714C63.7685 123.939 64.5119 123.411 64.5006 123.539C64.4897 123.668 64.8102 123.431 65.2129 123.012C65.6156 122.593 66.538 121.91 67.2621 121.495C67.9862 121.08 68.5928 120.647 68.61 120.532C68.6272 120.417 68.8475 120.201 69.0993 120.052C69.3514 119.903 69.7308 119.626 69.9427 119.438C70.1547 119.249 71.1099 118.542 72.0654 117.866C73.0213 117.19 74.0223 116.411 74.2903 116.135C75.1624 115.238 76.1438 114.827 76.0589 115.394ZM86.8365 117.033C86.8165 117.167 86.6443 117.253 86.4541 117.225C86.264 117.196 86.2154 117.077 86.3465 116.96C86.4776 116.842 86.6495 116.756 86.7289 116.768C86.8083 116.78 86.8566 116.899 86.8365 117.033ZM61.1046 114.542C61.6631 114.765 61.7516 114.73 61.6205 114.336C61.467 113.876 61.4798 113.878 61.9936 114.391C62.3824 114.78 62.4172 114.981 62.1227 115.138C61.6339 115.401 59.5273 114.261 59.6001 113.774C59.6256 113.604 59.4995 113.442 59.3198 113.415C59.1401 113.388 59.0181 113.23 59.0491 113.063C59.0796 112.897 59.4029 113.1 59.7677 113.516C60.132 113.932 60.7337 114.393 61.1046 114.542ZM85.8472 117.756C85.7136 117.942 85.455 118.071 85.2727 118.044C85.0813 118.015 85.1361 117.865 85.4022 117.69C85.6561 117.522 85.9146 117.393 85.9766 117.402C86.0387 117.412 85.9805 117.571 85.8472 117.756ZM78.1611 116.972C78.1418 117.101 77.6493 117.504 77.067 117.866C76.2504 118.375 71.3667 121.885 69.8625 123.045C69.5238 123.306 68.2779 122.753 68.3356 122.367C68.4454 121.633 74.8872 116.989 75.6396 117.101C76.0431 117.162 76.5809 117.074 76.8348 116.906C77.3503 116.566 78.2154 116.609 78.1611 116.972ZM17.6473 110.988C18.2511 112.007 18.6632 112.885 18.5634 112.938C18.4636 112.991 18.2469 112.675 18.0819 112.235C17.9173 111.795 17.6628 111.418 17.5171 111.396C17.3714 111.374 17.1942 111.134 17.1236 110.862C17.0533 110.59 16.5592 109.816 16.0258 109.142C15.4924 108.467 15.0694 107.816 15.0859 107.694C15.1384 107.306 16.5144 109.075 17.6473 110.988ZM87.9558 119.579C87.6188 120.001 87.0632 120.696 86.7213 121.124C86.0441 121.972 85.9165 122.021 85.629 121.545C85.5082 121.345 85.5716 121.317 85.8012 121.467C86.0604 121.637 86.1331 121.528 86.0548 121.089C85.9836 120.69 86.1401 120.389 86.4996 120.235C86.8044 120.104 86.9877 119.888 86.9072 119.754C86.8266 119.621 86.9284 119.537 87.1335 119.567C87.339 119.598 87.4667 119.479 87.4177 119.304C87.3143 118.933 88.0106 118.453 88.3427 118.667C88.467 118.747 88.2927 119.158 87.9558 119.579ZM73.2006 116.639C73.1704 116.84 72.5189 116.859 72.3997 116.662C72.3223 116.534 72.4732 116.462 72.7349 116.501C72.9966 116.54 73.2061 116.602 73.2006 116.639ZM84.9499 118.431C84.9309 118.531 84.5915 118.845 84.1957 119.128C83.7088 119.476 83.5206 119.517 83.6145 119.253C83.8205 118.673 85.0478 117.918 84.9499 118.431ZM90.239 119.658C90.3174 119.889 90.1886 120.024 89.9276 119.985C89.6829 119.949 89.4226 119.742 89.3491 119.525C89.2707 119.294 89.3995 119.159 89.6605 119.198C89.9052 119.235 90.1655 119.442 90.239 119.658ZM72.156 116.923C72.1484 116.974 71.8623 117.127 71.5205 117.264C70.957 117.489 70.9469 117.479 71.4107 117.153C71.8984 116.812 72.1859 116.723 72.156 116.923ZM59.4247 116.122C59.3131 116.182 59.0607 116.068 58.8638 115.868C58.5796 115.579 58.6213 115.557 59.0671 115.759C59.3755 115.899 59.5365 116.062 59.4247 116.122ZM90.7567 120.831C90.9857 121.21 89.0826 123.837 88.7416 123.613C88.5676 123.499 88.4997 123.591 88.5814 123.831C88.6613 124.068 88.3946 124.448 87.9628 124.713C87.5449 124.97 86.9523 125.498 86.6457 125.887C85.9633 126.751 84.006 128.376 83.2643 128.694C82.9644 128.823 82.7046 129.026 82.6867 129.145C82.6338 129.5 79.398 131.61 76.8135 132.977C69.1402 137.033 54.1792 139.6 50.5424 137.484C49.4882 136.871 49.4399 136.805 50.2026 137.018C50.6915 137.155 51.1722 137.195 51.2706 137.107C51.3685 137.019 52.2518 136.992 53.233 137.047C55.0798 137.149 58.423 136.881 61.3945 136.392C64.8622 135.821 68.1021 135.094 68.1342 134.879C68.1523 134.758 68.3613 134.688 68.5984 134.723C68.8356 134.759 69.5729 134.533 70.2367 134.221C70.9006 133.91 71.5732 133.674 71.731 133.698C71.8891 133.721 71.9437 133.618 71.8527 133.467C71.7616 133.316 71.9776 133.237 72.3328 133.29C73.1277 133.409 79.1698 130.327 79.2547 129.76C79.288 129.536 79.5404 129.388 79.8155 129.429C80.0909 129.47 80.4379 129.334 80.5868 129.127C80.7356 128.921 81.1166 128.605 81.433 128.425C82.7487 127.679 83.6148 127.034 83.8809 126.601C84.0363 126.348 84.3734 126.114 84.6296 126.08C84.8858 126.047 85.2449 125.698 85.4272 125.305C85.6099 124.912 85.9634 124.621 86.213 124.659C86.4822 124.699 86.6126 124.567 86.5336 124.333C86.4478 124.081 86.5948 123.969 86.9444 124.021C87.2436 124.066 87.4142 123.979 87.3232 123.829C87.2321 123.678 87.3136 123.578 87.5037 123.607C87.6939 123.635 87.8378 123.573 87.8234 123.468C87.7673 123.061 88.5139 122.025 88.7509 122.18C88.8883 122.271 88.9943 122.011 88.9863 121.604C88.9754 121.039 89.0784 120.913 89.424 121.07C89.7029 121.197 89.8986 121.126 89.9347 120.884C89.9978 120.463 90.5139 120.429 90.7567 120.831ZM82.5575 120.431C82.2315 120.695 81.5384 121.172 81.0176 121.493C80.0973 122.058 79.8855 122.324 79.9386 122.849C79.9525 122.988 79.8036 122.943 79.6079 122.748C79.287 122.431 80.5783 121.14 81.6222 120.735C81.7499 120.686 82.0731 120.416 82.3411 120.136C82.609 119.857 82.9009 119.701 82.9891 119.79C83.0777 119.879 82.8835 120.168 82.5575 120.431ZM3.61359 108.445C3.58354 108.646 3.41192 108.788 3.23222 108.761C3.05253 108.734 2.9301 108.548 2.96015 108.347C2.99021 108.146 3.16182 108.004 3.34151 108.031C3.5212 108.058 3.64365 108.244 3.61359 108.445ZM80.5617 120.565C80.3034 120.794 80.0356 120.925 79.9668 120.856C79.8426 120.73 80.6656 120.094 80.9058 120.13C80.975 120.14 80.8204 120.336 80.5617 120.565ZM84.0894 123.879C83.3943 124.509 82.6551 125.125 82.446 125.25C82.2374 125.374 81.3189 125.965 80.4051 126.563C77.7549 128.297 74.0648 130.189 72.0329 130.855C68.878 131.889 69.09 131.414 72.4267 129.973C77.54 127.764 82.2022 125.091 81.7734 124.615C81.6573 124.487 81.7243 124.481 81.9225 124.603C82.1305 124.731 82.3967 124.64 82.5521 124.387C82.7004 124.146 83.0456 123.919 83.3195 123.883C83.5934 123.847 83.8402 123.667 83.8678 123.482C83.9737 122.774 85.3004 121.606 85.328 122.197C85.3416 122.493 84.7844 123.25 84.0894 123.879ZM5.95717 110.642C5.93885 110.764 6.59143 111.87 7.40761 113.1C8.22346 114.329 8.78956 115.319 8.66522 115.299C8.54089 115.28 8.13417 114.799 7.76158 114.23C7.38899 113.662 6.91228 113.082 6.7019 112.941C6.49184 112.8 6.34772 112.497 6.38197 112.268C6.41625 112.039 6.17069 111.671 5.83634 111.45C5.20776 111.034 5.08779 110.284 5.66379 110.37C5.84348 110.397 5.97549 110.519 5.95717 110.642ZM75.3172 121.162C75.1836 121.347 74.9251 121.476 74.7428 121.449C74.5513 121.42 74.6061 121.271 74.8722 121.095C75.1261 120.927 75.3846 120.798 75.4467 120.807C75.5088 120.817 75.4505 120.976 75.3172 121.162ZM53.8467 117.992C53.7134 118.064 53.7951 118.335 54.0286 118.594C54.4921 119.108 53.7154 120.047 52.9241 119.929C52.7231 119.899 52.9221 119.665 53.3658 119.41C54.0785 119 54.12 118.901 53.7212 118.563C53.3085 118.214 53.414 117.761 53.8913 117.832C54.0004 117.849 53.9803 117.921 53.8467 117.992ZM52.9115 119.066C52.774 119.257 52.5994 119.35 52.5233 119.274C52.4473 119.197 52.4994 119.032 52.6393 118.907C53.0196 118.566 53.1965 118.67 52.9115 119.066ZM78.8808 123.424C78.223 123.859 77.7731 123.479 78.3013 122.936C78.6072 122.621 78.8242 122.582 79.0427 122.802C79.2616 123.022 79.214 123.204 78.8808 123.424ZM78.4243 123.172C78.1953 123.492 78.2283 123.526 78.5868 123.336C78.835 123.204 78.9647 123.022 78.8753 122.932C78.7859 122.842 78.583 122.95 78.4243 123.172ZM66.2338 121.557C66.0964 121.747 65.9218 121.841 65.8457 121.764C65.7697 121.688 65.8218 121.522 65.9617 121.397C66.342 121.057 66.5189 121.161 66.2338 121.557ZM51.2931 120.183C51.0606 120.422 50.7971 120.607 50.7073 120.593C50.6175 120.58 50.7339 120.373 50.9664 120.134C51.1989 119.895 51.4623 119.71 51.5522 119.723C51.642 119.737 51.5256 119.944 51.2931 120.183ZM51.6878 121.333C51.2064 121.855 50.7631 122.239 50.703 122.188C50.5028 122.016 52.1226 120.097 52.3447 120.242C52.4649 120.321 52.1693 120.812 51.6878 121.333ZM64.7343 122.542C64.3634 122.816 64.0057 122.987 63.9398 122.923C63.82 122.806 65.04 121.99 65.2808 122.026C65.3511 122.036 65.1052 122.269 64.7343 122.542ZM77.0952 124.57C76.7467 124.798 76.1694 125.174 75.8122 125.405C75.455 125.636 75.0842 125.746 74.9884 125.649C74.8926 125.553 75.3246 125.179 75.9482 124.819C76.572 124.459 77.0962 124.076 77.1131 123.968C77.1303 123.859 77.2756 123.857 77.4365 123.963C77.6044 124.073 77.4596 124.331 77.0952 124.57ZM64.9454 126.397C61.5702 128.712 60.1059 129.469 59.2492 129.341C58.7516 129.266 59.4343 128.686 63.802 125.47C67.3468 122.861 67.4017 122.833 67.9527 123.388C68.5036 123.943 68.4639 123.983 64.9454 126.397ZM73.5941 124.399C73.7681 124.913 72.6128 125.622 72.0321 125.358C71.4498 125.093 71.5341 124.721 72.2772 124.275C73.0185 123.83 73.4135 123.867 73.5941 124.399ZM24.333 118.387C25.7412 119.838 25.4357 120.139 23.991 118.724C23.4069 118.151 22.7759 117.66 22.589 117.633C22.4018 117.605 22.3561 117.486 22.4872 117.368C22.8779 117.018 23.1522 117.17 24.333 118.387ZM10.0304 116.525C10.5392 117.358 10.1516 117.401 9.61694 116.572C9.36968 116.188 9.28245 115.891 9.42294 115.912C9.56375 115.933 9.83681 116.209 10.0304 116.525ZM74.7999 126.045C74.748 126.392 71.4047 128.862 71.2178 128.691C71.0917 128.576 71.0544 128.694 71.1347 128.953C71.222 129.233 71.1594 129.344 70.9802 129.226C70.8147 129.118 70.6626 129.141 70.6421 129.277C70.5908 129.621 66.7167 132.659 66.2451 132.726C65.865 132.779 68.5706 130.405 69.4421 129.92C69.6939 129.78 70.1963 129.324 70.559 128.906C70.9217 128.489 71.3403 128.227 71.4894 128.325C71.6382 128.422 71.7756 128.399 71.7945 128.273C71.8438 127.943 74.2758 125.873 74.5695 125.911C74.7048 125.928 74.8084 125.988 74.7999 126.045ZM71.3636 126.196C71.4813 127.321 65.0185 131.02 64.2638 130.259C64.1779 130.173 65.5161 129.073 67.2377 127.815C70.2204 125.636 71.2619 125.227 71.3636 126.196ZM26.6714 120.75C26.9462 121.204 26.6369 121.215 26.2248 120.766C26.0208 120.544 25.9984 120.383 26.1748 120.41C26.3509 120.436 26.5745 120.589 26.6714 120.75ZM50.1638 124.792C50.0306 124.97 49.9618 124.901 49.9885 124.615C50.0129 124.356 50.1115 124.224 50.2079 124.321C50.3042 124.418 50.2846 124.63 50.1638 124.792ZM66.1225 127.754C65.4623 128.272 64.7808 128.674 64.608 128.648C64.4348 128.622 64.6063 128.396 64.9892 128.145C67.4687 126.519 67.8779 126.378 66.1225 127.754ZM70.2177 128.58C70.0714 128.783 69.819 128.93 69.6573 128.906C69.4953 128.881 69.574 128.674 69.8328 128.445C70.3776 127.962 70.6048 128.042 70.2177 128.58ZM49.4109 126.034C49.431 125.917 49.6477 125.991 49.8923 126.198C50.3771 126.609 50.4128 127.272 49.9462 127.202C49.7865 127.178 49.7047 126.973 49.7641 126.745C49.8238 126.518 49.6646 126.298 49.4103 126.257C49.1562 126.215 48.9127 126.008 48.8692 125.796C48.7989 125.454 48.8227 125.457 49.0822 125.828C49.2427 126.058 49.3905 126.15 49.4109 126.034ZM58.6151 128.399C58.465 128.608 58.277 128.713 58.1972 128.632C58.1173 128.552 58.1748 128.315 58.3248 128.107C58.4749 127.899 58.6629 127.794 58.7428 127.874C58.8226 127.955 58.7652 128.191 58.6151 128.399ZM51.7187 127.597C52.1906 128.013 53.1091 128.56 53.76 128.813C54.4112 129.066 54.9296 129.368 54.9124 129.483C54.8774 129.717 53.2115 129.209 52.9957 128.899C52.9201 128.79 52.575 128.585 52.2288 128.443C51.8827 128.301 51.3757 127.873 51.1025 127.494C50.4717 126.617 50.6386 126.645 51.7187 127.597ZM64.3371 129.001C64.3012 129.241 61.3827 130.656 61.0318 130.603C60.8491 130.576 61.4858 130.172 62.4459 129.704C64.2881 128.808 64.3705 128.777 64.3371 129.001ZM68.1045 130.156C67.8461 130.385 67.5784 130.516 67.5095 130.447C67.3853 130.321 68.2083 129.685 68.4485 129.721C68.5177 129.731 68.3632 129.927 68.1045 130.156ZM57.183 130.277C57.0207 130.937 56.7845 131.462 56.6581 131.443C56.4353 131.41 56.7628 129.908 57.1183 129.333C57.4562 128.787 57.4766 129.084 57.183 130.277ZM62.7588 132.854C62.4698 132.943 62.0864 132.994 61.9067 132.968C61.727 132.941 61.8164 132.846 62.1054 132.756C62.3943 132.667 62.7777 132.615 62.9574 132.642C63.1371 132.669 63.0477 132.764 62.7588 132.854ZM57.6762 132.845C58.1265 133.582 57.9273 133.503 57.0986 132.616C56.7182 132.209 56.6181 131.972 56.8758 132.089C57.1334 132.207 57.4937 132.547 57.6762 132.845ZM62.551 134.198C62.2931 134.368 62.0067 134.432 61.9141 134.338C61.8218 134.245 61.9779 134.1 62.2608 134.015C63.0013 133.792 63.0858 133.845 62.551 134.198ZM58.9099 134.021C59.1601 134.191 59.2177 134.308 59.038 134.282C58.8583 134.255 58.5066 134.094 58.2565 133.923C58.0064 133.753 57.9488 133.636 58.1285 133.663C58.3082 133.69 58.6598 133.851 58.9099 134.021ZM63.3205 134.813C62.4334 135.152 61.9389 135.079 62.5531 134.7C62.814 134.539 63.2482 134.439 63.5178 134.479C63.8875 134.533 63.8391 134.615 63.3205 134.813ZM61.5084 135.073C61.2738 135.107 60.9062 135.052 60.6916 134.95C60.4772 134.849 60.6691 134.822 61.1183 134.889C61.5675 134.956 61.7432 135.039 61.5084 135.073ZM32.1104 133.648C31.9603 133.857 31.7723 133.961 31.6924 133.881C31.6126 133.801 31.67 133.564 31.8201 133.356C31.9702 133.147 32.1582 133.043 32.238 133.123C32.3179 133.203 32.2605 133.44 32.1104 133.648Z" fill="#9D7C53"/>
<path d="M115 106.163C115 99.8488 116.48 94.0776 119.439 88.849C122.448 83.6204 126.518 79.5263 131.648 76.5668C136.827 73.5579 142.549 72.0534 148.813 72.0534C154.93 72.0534 160.504 73.5085 165.535 76.4188C170.615 79.329 174.611 83.3491 177.521 88.4791C180.431 93.609 181.886 99.3062 181.886 105.571C181.886 110.355 180.999 114.893 179.223 119.185C177.496 123.427 175.079 127.102 171.972 130.209C168.914 133.267 165.387 135.635 161.391 137.312C157.396 138.989 153.105 139.828 148.517 139.828C142.351 139.828 136.704 138.422 131.574 135.61C126.493 132.799 122.448 128.853 119.439 123.772C116.48 118.642 115 112.772 115 106.163ZM141.266 136.942C134.854 133.045 130.045 128.433 126.838 123.106C123.632 117.779 122.029 111.934 122.029 105.571C122.029 100.737 122.794 96.4946 124.323 92.8445C125.852 89.1943 127.849 86.0621 130.316 83.4478C132.831 80.7842 135.964 78.0466 139.712 75.235C134.73 77.0107 130.562 79.5017 127.208 82.7079C123.854 85.9141 121.388 89.5889 119.809 93.7323C118.231 97.8264 117.442 102.167 117.442 106.754C117.442 110.109 117.96 113.414 118.995 116.669C120.031 119.925 121.536 122.86 123.509 125.474C125.531 128.088 128.022 130.382 130.982 132.355C133.941 134.328 137.369 135.857 141.266 136.942ZM133.349 101.945C133.349 112.452 134.878 120.714 137.937 126.732C140.995 132.7 144.966 135.684 149.849 135.684C152.315 135.684 154.609 134.673 156.73 132.651C158.851 130.579 160.528 127.546 161.761 123.55C163.044 119.505 163.685 114.573 163.685 108.752C163.685 98.4923 162.304 90.5015 159.542 84.7796C156.829 79.0084 153.055 76.1228 148.221 76.1228C143.535 76.1228 139.885 78.2932 137.271 82.6339C134.657 86.9253 133.349 93.3624 133.349 101.945ZM159.468 133.095C163.167 131.072 166.003 127.866 167.976 123.476C169.95 119.086 170.936 113.709 170.936 107.346C170.936 91.6606 166.102 81.4254 156.434 76.6408C159.887 80.0936 162.353 84.3357 163.833 89.367C165.362 94.3982 166.127 101.156 166.127 109.64C166.127 115.017 165.559 119.53 164.425 123.18C163.34 126.781 161.687 130.086 159.468 133.095Z" fill="#9D7C53"/>
<path d="M216.07 72.0534V81.894C220.213 78.6878 224.036 76.2461 227.538 74.569C231.09 72.892 235.307 72.0534 240.19 72.0534C254.15 72.0534 261.129 78.9838 261.129 92.8445V126.584C261.129 129.79 261.894 131.812 263.423 132.651C264.952 133.489 267.27 133.909 270.378 133.909V137.978H234.715V133.909C237.872 133.909 240.166 133.415 241.596 132.429C243.076 131.393 243.816 129.247 243.816 125.992V90.2548C243.816 87.6405 243.396 85.4455 242.558 83.6698C241.769 81.8447 240.585 80.4635 239.006 79.5263C237.428 78.5891 235.504 78.1205 233.235 78.1205C230.424 78.1205 227.661 78.8604 224.948 80.3402C222.285 81.7707 219.325 83.9657 216.07 86.9253V125.992C216.07 128.211 216.44 129.913 217.179 131.097C217.919 132.281 218.906 133.021 220.139 133.317C221.422 133.613 223.247 133.81 225.614 133.909V137.978H189.877V133.909C192.886 133.909 195.205 133.514 196.832 132.725C198.46 131.886 199.274 130.012 199.274 127.102V94.3242C199.274 91.0687 198.534 88.4544 197.054 86.4814C195.575 84.459 193.182 82.9299 189.877 81.894V79.4524L213.258 72.0534H216.07ZM201.716 91.8826V125.844C201.716 128.063 201.543 129.667 201.198 130.653C200.902 131.64 200.211 132.725 199.126 133.909C203.96 133.465 206.377 130.776 206.377 125.844V90.5508C206.377 88.0845 205.489 85.9881 203.713 84.2617C201.987 82.4859 199.965 81.5981 197.646 81.5981C197.4 81.5981 196.956 81.6474 196.314 81.746C195.673 81.8447 195.254 81.894 195.057 81.894C199.496 83.9164 201.716 87.2459 201.716 91.8826ZM246.257 89.5149V125.992C246.257 127.521 246.208 128.655 246.109 129.395C246.06 130.086 245.863 130.776 245.517 131.467C245.222 132.108 244.605 132.922 243.668 133.909H245.074C247.639 133.909 249.34 132.971 250.179 131.097C251.017 129.173 251.437 126.312 251.437 122.514V89.8109C251.437 85.5688 250.499 82.338 248.625 80.1183C246.751 77.8986 243.446 76.6901 238.71 76.4928C241.374 77.578 243.298 79.1564 244.482 81.2281C245.665 83.2505 246.257 86.0128 246.257 89.5149Z" fill="#9D7C53"/>
<path d="M277.629 106.163C277.629 99.8488 279.109 94.0776 282.068 88.849C285.077 83.6204 289.147 79.5263 294.277 76.5668C299.456 73.5579 305.178 72.0534 311.442 72.0534C317.559 72.0534 323.132 73.5085 328.164 76.4188C333.244 79.329 337.24 83.3491 340.15 88.4791C343.06 93.609 344.515 99.3062 344.515 105.571C344.515 110.355 343.628 114.893 341.852 119.185C340.125 123.427 337.708 127.102 334.601 130.209C331.543 133.267 328.016 135.635 324.02 137.312C320.025 138.989 315.733 139.828 311.146 139.828C304.98 139.828 299.333 138.422 294.203 135.61C289.122 132.799 285.077 128.853 282.068 123.772C279.109 118.642 277.629 112.772 277.629 106.163ZM303.895 136.942C297.483 133.045 292.673 128.433 289.467 123.106C286.261 117.779 284.658 111.934 284.658 105.571C284.658 100.737 285.422 96.4946 286.952 92.8445C288.481 89.1943 290.478 86.0621 292.945 83.4478C295.46 80.7842 298.593 78.0466 302.341 75.235C297.359 77.0107 293.191 79.5017 289.837 82.7079C286.483 85.9141 284.017 89.5889 282.438 93.7323C280.86 97.8264 280.071 102.167 280.071 106.754C280.071 110.109 280.589 113.414 281.624 116.669C282.66 119.925 284.165 122.86 286.138 125.474C288.16 128.088 290.651 130.382 293.611 132.355C296.57 134.328 299.998 135.857 303.895 136.942ZM295.978 101.945C295.978 112.452 297.507 120.714 300.566 126.732C303.624 132.7 307.595 135.684 312.478 135.684C314.944 135.684 317.238 134.673 319.359 132.651C321.48 130.579 323.157 127.546 324.39 123.55C325.673 119.505 326.314 114.573 326.314 108.752C326.314 98.4923 324.933 90.5015 322.171 84.7796C319.458 79.0084 315.684 76.1228 310.85 76.1228C306.164 76.1228 302.514 78.2932 299.9 82.6339C297.285 86.9253 295.978 93.3624 295.978 101.945ZM322.097 133.095C325.796 131.072 328.632 127.866 330.605 123.476C332.578 119.086 333.565 113.709 333.565 107.346C333.565 91.6606 328.731 81.4254 319.063 76.6408C322.516 80.0936 324.982 84.3357 326.462 89.367C327.991 94.3982 328.756 101.156 328.756 109.64C328.756 115.017 328.188 119.53 327.054 123.18C325.969 126.781 324.316 130.086 322.097 133.095Z" fill="#9D7C53"/>
<path d="M360.571 120.073V77.9726H352.654V74.1991C356.995 70.9436 360.251 68.4526 362.421 66.7262C364.591 64.9504 366.638 62.9774 368.562 60.807C370.535 58.6366 372.212 56.3676 373.593 54H377.515V73.3112H395.864V77.9726H377.515V122.218C377.515 125.474 377.909 127.915 378.699 129.543C379.488 131.122 380.82 131.911 382.694 131.911C384.47 131.911 386.098 131.418 387.577 130.431C389.106 129.445 390.956 127.915 393.127 125.844L395.864 128.729C392.165 132.527 388.761 135.364 385.654 137.238C382.595 139.063 379.069 139.976 375.073 139.976C371.275 139.976 368.315 139.137 366.194 137.46C364.073 135.783 362.594 133.514 361.755 130.653C360.966 127.743 360.571 124.216 360.571 120.073ZM367.822 65.3943L362.939 69.4638V118.593C362.939 125.153 363.777 129.938 365.454 132.947C367.181 135.906 370.239 137.386 374.629 137.386C376.947 137.386 379.266 137.016 381.584 136.276C377.095 136.424 373.667 135.388 371.3 133.169C368.981 130.9 367.822 127.151 367.822 121.922V65.3943Z" fill="#9D7C53"/>
<path d="M402.375 106.163C402.375 99.8488 403.855 94.0776 406.815 88.849C409.823 83.6204 413.893 79.5263 419.023 76.5668C424.202 73.5579 429.924 72.0534 436.188 72.0534C442.305 72.0534 447.879 73.5085 452.91 76.4188C457.991 79.329 461.986 83.3491 464.896 88.4791C467.807 93.609 469.262 99.3062 469.262 105.571C469.262 110.355 468.374 114.893 466.598 119.185C464.872 123.427 462.455 127.102 459.347 130.209C456.289 133.267 452.762 135.635 448.767 137.312C444.771 138.989 440.48 139.828 435.892 139.828C429.727 139.828 424.079 138.422 418.949 135.61C413.868 132.799 409.823 128.853 406.815 123.772C403.855 118.642 402.375 112.772 402.375 106.163ZM428.641 136.942C422.229 133.045 417.42 128.433 414.214 123.106C411.007 117.779 409.404 111.934 409.404 105.571C409.404 100.737 410.169 96.4946 411.698 92.8445C413.227 89.1943 415.225 86.0621 417.691 83.4478C420.207 80.7842 423.339 78.0466 427.088 75.235C422.106 77.0107 417.938 79.5017 414.583 82.7079C411.229 85.9141 408.763 89.5889 407.185 93.7323C405.606 97.8264 404.817 102.167 404.817 106.754C404.817 110.109 405.335 113.414 406.371 116.669C407.406 119.925 408.911 122.86 410.884 125.474C412.906 128.088 415.397 130.382 418.357 132.355C421.317 134.328 424.745 135.857 428.641 136.942ZM420.725 101.945C420.725 112.452 422.254 120.714 425.312 126.732C428.37 132.7 432.341 135.684 437.224 135.684C439.691 135.684 441.984 134.673 444.105 132.651C446.226 130.579 447.903 127.546 449.137 123.55C450.419 119.505 451.06 114.573 451.06 108.752C451.06 98.4923 449.679 90.5015 446.917 84.7796C444.204 79.0084 440.43 76.1228 435.596 76.1228C430.91 76.1228 427.26 78.2932 424.646 82.6339C422.032 86.9253 420.725 93.3624 420.725 101.945ZM446.843 133.095C450.542 131.072 453.379 127.866 455.352 123.476C457.325 119.086 458.311 113.709 458.311 107.346C458.311 91.6606 453.477 81.4254 443.809 76.6408C447.262 80.0936 449.728 84.3357 451.208 89.367C452.737 94.3982 453.502 101.156 453.502 109.64C453.502 115.017 452.935 119.53 451.8 123.18C450.715 126.781 449.063 130.086 446.843 133.095Z" fill="#9D7C53"/>
<path d="M571.811 96.174L553.61 139.976H547.913L531.191 103.277L515.875 139.976H510.178L486.649 88.849C484.824 84.7549 483.172 81.894 481.692 80.2662C480.262 78.6385 478.19 77.7259 475.477 77.5286V73.3112H508.92V77.5286C505.171 77.6766 503.297 79.1811 503.297 82.042C503.297 82.8805 503.445 83.8177 503.741 84.8536C504.037 85.8894 504.382 86.8513 504.777 87.7392C505.171 88.6271 505.64 89.6136 506.182 90.6988L519.871 119.925L528.749 98.2457L524.68 89.8109C523.052 86.3087 521.498 83.6698 520.019 81.894C518.539 80.0689 516.566 78.6138 514.099 77.5286V73.3112H550.428V77.5286C547.715 77.5286 545.57 77.8986 543.991 78.6385C542.462 79.329 541.697 80.8828 541.697 83.2998C541.697 84.5823 541.87 85.7415 542.215 86.7773C542.61 87.8132 543.498 89.8849 544.879 92.9924L557.457 119.925L565.448 100.243C565.892 99.2076 566.41 98.0484 567.002 96.7659C567.594 95.4341 568.112 93.9296 568.556 92.2525C569 90.5754 569.222 88.7997 569.222 86.9253C569.222 84.607 568.556 82.5846 567.224 80.8582C565.892 79.0824 563.993 77.9726 561.527 77.5286V73.3112H586.979V77.5286C581.307 79.0577 576.251 85.2729 571.811 96.174ZM578.47 77.3807H567.446C569.024 78.4165 570.109 79.6003 570.701 80.9321C571.293 82.2146 571.713 84.015 571.959 86.3334C572.403 84.6563 573.242 83.0039 574.475 81.3761C575.708 79.699 577.04 78.3672 578.47 77.3807ZM527.417 89.9589L548.948 136.646H549.836C550.773 135.216 551.242 133.884 551.242 132.651C551.242 131.072 550.971 129.642 550.428 128.359C549.886 127.028 549.146 125.424 548.209 123.55L533.041 90.6988C531.068 86.506 529.514 83.5711 528.379 81.894C527.245 80.2169 525.962 79.0824 524.532 78.4905C523.101 77.8493 521.128 77.5286 518.613 77.5286C520.586 78.7618 522.189 80.3649 523.422 82.3379C524.655 84.311 525.987 86.8513 527.417 89.9589ZM491.533 93.4364L511.362 136.646H512.546C513.285 135.018 513.655 133.687 513.655 132.651C513.655 130.974 512.324 127.348 509.66 121.774L495.01 89.6629C493.432 86.1607 492.149 83.6204 491.163 82.042C490.176 80.4142 488.992 79.2551 487.611 78.5645C486.279 77.8246 484.356 77.4793 481.84 77.5286C482.876 78.2685 483.838 79.2797 484.726 80.5622C485.663 81.8447 486.699 83.6204 487.833 85.8894C488.968 88.1091 490.201 90.6248 491.533 93.4364Z" fill="#9D7C53"/>
<path d="M618.573 72.0534V81.894C622.716 78.6878 626.539 76.2461 630.041 74.569C633.592 72.892 637.81 72.0534 642.693 72.0534C656.653 72.0534 663.632 78.9838 663.632 92.8445V126.584C663.632 129.79 664.397 131.812 665.926 132.651C667.455 133.489 669.773 133.909 672.881 133.909V137.978H637.218V133.909C640.375 133.909 642.669 133.415 644.099 132.429C645.579 131.393 646.319 129.247 646.319 125.992V90.2548C646.319 87.6405 645.899 85.4455 645.061 83.6698C644.272 81.8447 643.088 80.4635 641.509 79.5263C639.931 78.5891 638.007 78.1205 635.738 78.1205C632.927 78.1205 630.164 78.8604 627.451 80.3402C624.788 81.7707 621.828 83.9657 618.573 86.9253V125.992C618.573 128.211 618.943 129.913 619.682 131.097C620.422 132.281 621.409 133.021 622.642 133.317C623.924 133.613 625.75 133.81 628.117 133.909V137.978H592.38V133.909C595.389 133.909 597.708 133.514 599.335 132.725C600.963 131.886 601.777 130.012 601.777 127.102V94.3242C601.777 91.0687 601.037 88.4544 599.557 86.4814C598.078 84.459 595.685 82.9299 592.38 81.894V79.4524L615.761 72.0534H618.573ZM604.219 91.8826V125.844C604.219 128.063 604.046 129.667 603.701 130.653C603.405 131.64 602.714 132.725 601.629 133.909C606.463 133.465 608.88 130.776 608.88 125.844V90.5508C608.88 88.0845 607.992 85.9881 606.216 84.2617C604.49 82.4859 602.468 81.5981 600.149 81.5981C599.903 81.5981 599.459 81.6474 598.817 81.746C598.176 81.8447 597.757 81.894 597.56 81.894C601.999 83.9164 604.219 87.2459 604.219 91.8826ZM648.76 89.5149V125.992C648.76 127.521 648.711 128.655 648.612 129.395C648.563 130.086 648.366 130.776 648.02 131.467C647.724 132.108 647.108 132.922 646.171 133.909H647.576C650.141 133.909 651.843 132.971 652.682 131.097C653.52 129.173 653.94 126.312 653.94 122.514V89.8109C653.94 85.5688 653.002 82.338 651.128 80.1183C649.254 77.8986 645.949 76.6901 641.213 76.4928C643.877 77.578 645.801 79.1564 646.985 81.2281C648.168 83.2505 648.76 86.0128 648.76 89.5149Z" fill="#9D7C53"/>
</svg>
